<svg xmlns:xlink="http://www.w3.org/1999/xlink" xmlns="http://www.w3.org/2000/svg" version="1.1" viewBox="0 0 1100 1100" height="1100px" width="1100px">
    <title>暂无网络信号</title>
    <defs>
        <linearGradient id="linearGradient-1" y2="0%" x2="50%" y1="100%" x1="50%">
            <stop offset="4.475343e-05%" stop-opacity="0" stop-color="#FFFFFF"></stop>
            <stop offset="100%" stop-color="#E6EBEA"></stop>
        </linearGradient>
        <linearGradient id="linearGradient-2" y2="0%" x2="50%" y1="100%" x1="50%">
            <stop offset="4.475343e-05%" stop-opacity="0" stop-color="#FFFFFF"></stop>
            <stop offset="100%" stop-color="#E4EBE9"></stop>
        </linearGradient>
        <linearGradient id="linearGradient-3" y2="0%" x2="50%" y1="100%" x1="50%">
            <stop offset="4.475343e-05%" stop-opacity="0" stop-color="#FFFFFF"></stop>
            <stop offset="100%" stop-color="#E4EBE9"></stop>
        </linearGradient>
        <linearGradient id="linearGradient-4" y2="0%" x2="50%" y1="95.0911138%" x1="50%">
            <stop offset="4.475343e-05%" stop-opacity="0" stop-color="#FFFFFF"></stop>
            <stop offset="100%" stop-color="#E4EBE9"></stop>
        </linearGradient>
        <linearGradient id="linearGradient-5" y2="13.2167542%" x2="77.9601485%" y1="106.268911%" x1="77.9601485%">
            <stop offset="4.475343e-05%" stop-color="#F0F5F5"></stop>
            <stop offset="100%" stop-color="#D3E0DE"></stop>
        </linearGradient>
        <linearGradient id="linearGradient-6" y2="13.2167542%" x2="77.9601485%" y1="106.268911%" x1="77.9601485%">
            <stop offset="4.475343e-05%" stop-color="#F0F5F5"></stop>
            <stop offset="100%" stop-color="#D3E0DE"></stop>
        </linearGradient>
        <linearGradient id="linearGradient-7" y2="0%" x2="32.2166975%" y1="61.4624475%" x1="32.2166975%">
            <stop offset="4.475343e-05%" stop-opacity="0" stop-color="#F9FCFC"></stop>
            <stop offset="100%" stop-color="#D8E6E3"></stop>
        </linearGradient>
        <linearGradient id="linearGradient-8" y2="0%" x2="44.0043831%" y1="94.2357537%" x1="56.7029878%">
            <stop offset="4.475343e-05%" stop-color="#B8DBD0"></stop>
            <stop offset="100%" stop-color="#EEF5F5"></stop>
        </linearGradient>
        <linearGradient id="linearGradient-9" y2="0%" x2="10.7206677%" y1="94.2357537%" x1="93.9135609%">
            <stop offset="4.475343e-05%" stop-color="#B8DBD0"></stop>
            <stop offset="100%" stop-color="#EEF5F5"></stop>
        </linearGradient>
        <linearGradient id="linearGradient-10" y2="11.7807135%" x2="61.5464943%" y1="89.4201802%" x1="57.611464%">
            <stop offset="0.0184755068%" stop-color="#FFA2A5"></stop>
            <stop offset="100%" stop-color="#FFDDDE"></stop>
        </linearGradient>
        <path id="path-11" d="M22.0195249,263.53389 C63.9152875,305.743527 151.50466,285.933295 217.655864,219.2865 C283.807067,152.639704 303.469988,64.3941286 261.574226,22.184491 C219.678463,-20.0251466 132.089091,-0.214915396 65.9378868,66.4318808 C-0.213317263,133.078677 -19.8762376,221.324252 22.0195249,263.53389 Z"></path>
        <linearGradient id="linearGradient-13" y2="0%" x2="10.7206677%" y1="94.2357537%" x1="93.9135609%">
            <stop offset="4.475343e-05%" stop-color="#B8DBD0"></stop>
            <stop offset="100%" stop-color="#EEF5F5"></stop>
        </linearGradient>
        <path id="path-14" d="M21.193489,253.647734 C61.5175825,294.273927 145.821145,275.206852 209.490766,211.060231 C273.160387,146.913609 292.085677,61.9784605 251.761584,21.3522665 C211.43749,-19.2739273 127.133928,-0.206853103 63.4643064,63.9397689 C-0.205314923,128.086391 -19.1306045,213.02154 21.193489,253.647734 Z"></path>
        <linearGradient id="linearGradient-16" y2="88.8384436%" x2="100%" y1="11.1615564%" x1="0%">
            <stop offset="0%" stop-color="#DAEBE7"></stop>
            <stop offset="100%" stop-color="#B2D4C8"></stop>
        </linearGradient>
        <linearGradient id="linearGradient-17" y2="3.75697028%" x2="10.1299165%" y1="90.9119055%" x1="94.5740097%">
            <stop offset="4.475343e-05%" stop-color="#B8DBD0"></stop>
            <stop offset="100%" stop-color="#EEF5F5"></stop>
        </linearGradient>
    </defs>
    <g fill-rule="evenodd" fill="none" stroke-width="1" stroke="none" id="暂无网络信号">
        <rect height="1100" width="1100" y="0" x="0" fill="#FFFFFF"></rect>
        <g transform="translate(50, 50)" id="CRM-adorn-zwwlxh">
            <rect height="1000" width="1000" y="0" x="0" id="矩形"></rect>
            <g fill-rule="nonzero" transform="translate(105.0628, 104.5735)" opacity="0.8" id="编组-11">
                <path opacity="0.6" fill="url(#linearGradient-1)" id="路径" d="M586.652413,69.9413715 L586.652413,300 C586.652413,331.559129 561.068684,357.142857 529.509555,357.142857 L183.886045,357.142857 L183.886045,357.142857 C184.314634,258.512905 184.937523,152.585196 185.754711,39.3597312 L185.754729,39.3597313 C185.81268,31.5121153 192.190207,25.1806159 200.038036,25.1795078 L261.835384,25.1795078 C269.705433,25.1807182 276.092183,31.5468673 276.118819,39.4168715 C276.172308,56.2730663 276.154425,64.8203443 276.065181,65.0587056 L276.065181,65.114598 C276.065181,65.114598 276.176789,65.0587056 276.232593,65.0028132 L276.232593,64.8351362 C276.232593,56.7214288 282.752377,50.1913382 290.853278,50.1913382 C298.954178,50.1913382 305.473962,56.7214288 305.473962,64.8351362 C305.473962,69.624898 309.356831,73.5077672 314.146593,73.5077672 L337.696201,73.5077672 C355.492053,73.5077672 369.918441,59.0813792 369.918441,41.2855277 L369.918441,28.9065436 C369.918441,12.9419004 382.860341,2.93265738e-15 398.824984,0 C414.789627,-2.93265738e-15 427.731528,12.9419004 427.731528,28.9065436 L427.731528,105.953281 L427.731528,105.953281 C427.675724,106.176851 427.675724,106.344528 427.675724,106.577413 L427.675724,142.227422 C427.675724,147.462673 431.888936,151.691862 437.125224,151.691862 C442.296408,151.691862 446.518921,147.471989 446.518921,142.227422 L446.518921,114.458235 C464.683168,114.402343 477.843644,114.346451 486.55839,114.346451 C495.273136,114.346451 499.551454,114.402343 499.942083,114.458235 C501.346487,114.290558 499.942083,92.9396772 499.942083,92.9396772 L502.15293,92.9396772 C516.120925,92.9396772 527.444222,104.262975 527.444222,118.23097 L527.444222,118.23097 L527.444222,118.23097 C527.444222,122.059596 530.541352,125.161622 534.363935,125.161622 C538.186519,125.161622 541.283648,122.059596 541.283648,118.23097 L541.283648,69.9413715 C541.283648,57.4131332 551.439792,47.2569893 563.96803,47.2569893 C576.496269,47.2569893 586.652413,57.4131332 586.652413,69.9413715 Z"></path>
                <path transform="translate(617.5757, 357.1429) scale(-1, 1) translate(-617.5757, -357.1429)" opacity="0.96" fill="url(#linearGradient-2)" id="路径备份" d="M763.395601,210.96901 L763.395601,597.430613 L763.395601,597.430613 L471.75589,597.430613 C472.356363,459.245394 472.356615,332.073281 471.756646,215.914275 L471.75665,215.914275 C471.756144,215.816212 471.755891,215.718147 471.75589,215.620082 L471.75589,155.752076 C471.75589,134.26987 489.170659,116.855101 510.652865,116.855101 C532.135072,116.855101 549.549841,134.26987 549.549841,155.752076 L549.549841,259.427048 L549.549841,259.427048 C549.47475,259.727886 549.47475,259.953514 549.47475,260.266886 L549.47475,308.237947 C549.47475,315.28256 555.144097,320.973405 562.190107,320.973405 C569.14851,320.973405 574.830372,315.295095 574.830372,308.237947 L574.830372,270.871411 C599.272391,270.796202 616.981277,270.720992 628.70794,270.720992 C640.434602,270.720992 646.191554,270.796202 646.717189,270.871411 C648.606971,270.645783 646.717189,241.915793 646.717189,241.915793 L649.69213,241.915793 C668.487624,241.915793 683.724383,257.152552 683.724383,275.948046 L683.724383,275.948046 L683.724383,275.948046 C683.724383,281.099889 687.891916,285.274011 693.035628,285.274011 C698.17934,285.274011 702.346873,281.099889 702.346873,275.948046 L702.346873,210.96901 C702.346873,194.110869 716.013096,180.444646 732.871237,180.444646 C749.729378,180.444646 763.395601,194.110869 763.395601,210.96901 Z"></path>
                <path transform="translate(164.0231, 435.7143) scale(-1, 1) translate(-164.0231, -435.7143)" opacity="0.96" fill="url(#linearGradient-3)" id="路径备份-2" d="M328.046179,676.002042 L0,676.002042 C0.58289237,541.862698 1.43286827,397.691889 2.54992769,243.489614 L2.54993481,243.489614 C2.60733566,235.64007 8.98740184,229.307326 16.837155,229.308363 L109.808896,229.308363 C117.67772,229.309214 124.064249,235.673164 124.092969,243.541936 C124.184347,269.484311 124.165788,282.627088 124.037299,282.970268 L124.037299,283.045477 C124.037299,283.045477 124.18748,282.970268 124.262571,282.895058 L124.262571,282.66943 C124.262571,271.751533 133.035666,262.964568 143.936331,262.964568 C154.836995,262.964568 163.610091,271.751533 163.610091,282.66943 C163.610091,289.114588 168.834924,294.339422 175.280082,294.339422 L206.968705,294.339422 C230.915006,294.339422 250.327318,274.927109 250.327318,250.980808 L250.327318,234.28596 C250.327318,212.824489 267.725278,195.426529 289.186749,195.426529 C310.648219,195.426529 328.046179,212.824489 328.046179,234.28596 L328.046179,337.998477 L328.046179,338.838315 L328.046179,386.809375 L328.046179,676.002042 L328.046179,676.002042 Z"></path>
            </g>
            <g fill-rule="nonzero" transform="translate(7.1429, 464.2857)" id="编组-19">
                <ellipse ry="235.714286" rx="492.857143" cy="235.714286" cx="492.857143" opacity="0.8" fill="url(#linearGradient-4)" id="椭圆形"></ellipse>
                <g transform="translate(106.044, 51.002)" id="编组-17">
                    <rect rx="7.14285714" height="71.4285714" width="14.2857143" y="103.571429" x="36.8131868" fill="#D8E6E4" id="矩形"></rect>
                    <path fill="url(#linearGradient-5)" id="椭圆形" d="M43.956044,114.285714 C68.2322967,114.285714 87.9120879,94.6059231 87.9120879,70.3296703 C87.9120879,54.1455018 73.2600733,30.7022784 43.956044,0 C37.2796282,7.16759061 32.5067171,12.4271543 29.6373108,15.778691 C29.2062175,16.2822185 33.2465792,22.3827588 41.758396,34.0803117 C29.7747522,26.5768622 23.4537637,23.2406601 22.7954307,24.0717053 C7.59847688,43.2555442 0,58.6748658 0,70.3296703 C0,94.6059231 19.6797912,114.285714 43.956044,114.285714 Z"></path>
                </g>
                <g transform="translate(850, 118.8592)" id="编组-17备份">
                    <rect rx="4.0625" height="40.8163265" width="8.125" y="59.1836735" x="20.9375" fill="#D8E6E4" id="矩形"></rect>
                    <path fill="url(#linearGradient-6)" id="椭圆形" d="M25,65.3061224 C38.8071187,65.3061224 50,54.0605275 50,40.188383 C50,30.9402868 41.6666667,17.5441591 25,0 C21.2027885,4.09576606 18.4881954,7.10123101 16.8562205,9.01639484 C16.6110362,9.30412488 18.9089919,12.7901479 23.7500877,19.4744638 C16.9343903,15.1867784 13.3393281,13.2803772 12.9649012,13.7552602 C4.32163373,24.7174538 0,33.5284948 0,40.188383 C0,54.0605275 11.1928813,65.3061224 25,65.3061224 Z"></path>
                </g>
                <g transform="translate(778.5714, 47.4306)" id="编组-17备份-2">
                    <rect rx="4.0625" height="40.8163265" width="8.125" y="59.1836735" x="20.9375" fill="#D8E6E4" id="矩形"></rect>
                    <path fill="url(#linearGradient-6)" id="椭圆形" d="M25,65.3061224 C38.8071187,65.3061224 50,54.0605275 50,40.188383 C50,30.9402868 41.6666667,17.5441591 25,0 C21.2027885,4.09576606 18.4881954,7.10123101 16.8562205,9.01639484 C16.6110362,9.30412488 18.9089919,12.7901479 23.7500877,19.4744638 C16.9343903,15.1867784 13.3393281,13.2803772 12.9649012,13.7552602 C4.32163373,24.7174538 0,33.5284948 0,40.188383 C0,54.0605275 11.1928813,65.3061224 25,65.3061224 Z"></path>
                </g>
            </g>
            <polygon points="935.085136 711.932554 606.430033 813.960849 509.262072 609.026438 611.498556 611.007136" fill-rule="nonzero" fill="url(#linearGradient-7)" id="路径"></polygon>
            <g transform="translate(313.3929, 234.629)" id="编组-11">
                <polyline points="220.3125 182.778253 183.968194 266.827909 0 219.033786" opacity="0.603585379" stroke-width="3.125" stroke="#FFECED" id="路径-12备份"></polyline>
                <polygon points="243.75 266.827909 273.074075 266.827909 302.398147 378.394989 243.75 393.75" fill-rule="nonzero" fill="#B2D4C8" id="矩形"></polygon>
                <polygon points="229.6875 266.827909 243.75 266.827909 243.75 393.75 194.53125 375.540393" fill-rule="nonzero" fill="url(#linearGradient-8)" id="矩形备份-7"></polygon>
                <ellipse ry="48.4068331" rx="48.0468751" cy="237.294171" cx="237.363577" fill-rule="nonzero" fill="url(#linearGradient-9)" id="椭圆形"></ellipse>
                <path fill-rule="nonzero" fill="#B2D4C8" id="椭圆形备份-7" d="M58.9383939,285.371155 C108.109819,334.910961 203.956125,318.666487 273.017115,249.088108 C342.078101,179.509728 358.20178,82.9453577 309.030357,33.405551 C259.858932,-16.1342558 164.012625,0.110217643 94.9516361,69.6885979 C25.8906481,139.266978 9.76697018,235.831347 58.9383939,285.371155 Z"></path>
                <path fill-rule="nonzero" fill="#FCFFFF" id="椭圆形" d="M46.9274579,276.220294 C91.2297682,320.854509 183.259695,300.501471 252.482054,230.760512 C321.704412,161.019552 341.906103,68.3001537 297.603793,23.6659397 C253.301483,-20.9682742 161.271556,-0.615235729 92.0491971,69.1257237 C22.8268393,138.866683 2.6251479,231.58608 46.9274579,276.220294 Z"></path>
                <g transform="translate(30.4688, 7.0839)" id="椭圆形-+-路径-14-蒙版">
                    <g fill-rule="nonzero" fill="url(#linearGradient-10)" id="蒙版">
                        <path id="path-10" d="M22.0195249,263.53389 C63.9152875,305.743527 151.50466,285.933295 217.655864,219.2865 C283.807067,152.639704 303.469988,64.3941286 261.574226,22.184491 C219.678463,-20.0251466 132.089091,-0.214915396 65.9378868,66.4318808 C-0.213317263,133.078677 -19.8762376,221.324252 22.0195249,263.53389 Z"></path>
                    </g>
                    <g id="椭圆形-Clipped">
                        <mask fill="white" id="mask-12">
                            <use xlink:href="#path-11"></use>
                        </mask>
                        <use xlink:href="#path-11" fill-rule="nonzero" fill="#FCFFFF" id="path-10"></use>
                        <path mask="url(#mask-12)" fill-rule="nonzero" fill="#F48589" id="椭圆形" d="M124.378668,193.297812 C134.033806,203.360716 154.905903,197.922319 170.9978,181.150814 C187.089697,164.379309 192.307722,142.625723 182.652583,132.56282 C172.997445,122.499917 152.125348,127.938313 136.033451,144.709819 C119.941553,161.481324 114.723529,183.23491 124.378668,193.297812 Z"></path>
                    </g>
                    <g id="路径-14-Clipped">
                        <mask fill="white" id="mask-15">
                            <use xlink:href="#path-14"></use>
                        </mask>
                        <use xlink:href="#path-14" fill-rule="nonzero" fill="url(#linearGradient-13)" id="path-10"></use>
                        <path transform="translate(197.9923, 233.7627) rotate(86) translate(-197.9923, -233.7627)" mask="url(#mask-15)" opacity="0.379678416" fill-rule="nonzero" fill="#B2D4C8" id="路径-14" d="M266.090285,192.185977 C268.21057,189.73078 271.940265,189.445759 274.420795,191.549365 C276.901324,193.652972 277.19336,197.348612 275.073076,199.80381 C242.366432,237.676694 192.817806,263.456377 126.62724,277.258191 C123.434724,277.923882 120.298977,275.898716 119.623355,272.734856 C118.947733,269.570997 120.98808,266.466532 124.180596,265.80084 C187.996368,252.494211 235.232918,227.917479 266.090285,192.185977 Z"></path>
                    </g>
                </g>
                <path fill-rule="nonzero" fill="url(#linearGradient-16)" id="直线-5" d="M63.9075837,65.1318946 C66.383166,62.2655974 70.6723956,61.8922035 73.6021271,64.2438025 L73.7997376,64.4083641 L188.493886,163.468154 C191.425327,165.999999 191.749262,170.428867 189.217417,173.360308 C186.741835,176.226605 182.452605,176.599999 179.522873,174.2484 L179.325263,174.083838 L64.6311142,75.0240485 C61.6996739,72.492203 61.3757383,68.0633349 63.9075837,65.1318946 Z"></path>
                <ellipse ry="24.7937438" rx="25.7812501" cy="57.8520688" cx="56.2500001" fill-rule="nonzero" fill="url(#linearGradient-17)" id="椭圆形"></ellipse>
            </g>
            <g fill-rule="nonzero" fill="#B0D6C9" transform="translate(300.3032, 208.6523)" opacity="0.6" id="编组">
                <path id="路径" d="M46.1557419,44.4988933 L23.6961897,11.8299078 C22.107557,9.51913068 21.9297279,6.51847667 23.2343099,4.03623764 C24.5271548,1.57633094 27.1339027,0.0943071589 29.9089577,0.241476009 L34.6918971,0.495128531 C39.9949905,0.776366257 44.2254363,5.02428643 44.4848117,10.3284941 L46.1557419,44.4988933 L46.1557419,44.4988933 Z"></path>
                <path id="路径" d="M36.8820422,50.0142491 L5.75353271,44.2709848 C3.54704516,43.863884 1.7482127,42.2669269 1.0825574,40.1242134 C0.422630928,37.9999407 1.05824049,35.6858279 2.71065365,34.1966777 L5.5567108,31.6318189 C8.71168556,28.7885644 13.507403,28.7971384 16.652191,31.6516559 L36.8820422,50.0142491 L36.8820422,50.0142491 Z"></path>
                <path id="路径" d="M51.9001794,38.7328395 L54.2350089,10.7380501 C54.4000046,8.75973835 55.6478691,7.03585043 57.4756629,6.26118231 C59.2868396,5.49355696 61.3792664,5.85186072 62.8318475,7.17836664 L65.3414123,9.47011659 C68.1219857,12.0093532 68.5335907,16.2393922 66.2947052,19.2670485 L51.9001794,38.7328395 L51.9001794,38.7328395 Z"></path>
            </g>
        </g>
    </g>
</svg>